<svg aria-hidden="true" style="position: absolute; width: 0; height: 0; overflow: hidden;" version="1.1" xmlns="http://www.w3.org/2000/svg" xmlns:xlink="http://www.w3.org/1999/xlink">
<defs>
<symbol id="icon-logo" viewBox="0 0 32 32">
<path fill="#ff868e" style="fill: var(--color1, #ff868e)" d="M11.84 12.458c0-2.55 2.067-4.617 4.617-4.617 0 0 0.001 0 0.001 0h6.925c2.55 0 4.617 2.067 4.617 4.617s-2.067 4.617-4.617 4.617h-6.925c-2.55 0-4.617-2.067-4.617-4.617v0z"></path>
<path fill="#ff868e" style="fill: var(--color1, #ff868e)" d="M16.458 24c-2.55 0-4.617-2.067-4.617-4.617v0-6.925c0-2.55 2.067-4.617 4.617-4.617s4.617 2.067 4.617 4.617v0 6.925c0 2.55-2.067 4.617-4.617 4.617v0zM15.543 2.886c0 0.016 0.001 0.035 0.001 0.054 0 1.594-1.292 2.886-2.886 2.886s-2.886-1.292-2.886-2.886c0-0.019 0-0.038 0.001-0.057l-0 0.003c0.042-1.561 1.318-2.81 2.885-2.81s2.843 1.249 2.885 2.806l0 0.004zM9.771 16.737c0 0.016 0.001 0.035 0.001 0.054 0 1.594-1.292 2.886-2.886 2.886s-2.886-1.292-2.886-2.886c0-0.019 0-0.038 0.001-0.057l-0 0.003c0.030-1.571 1.311-2.832 2.885-2.832s2.855 1.262 2.885 2.829l0 0.003zM23.622 2.886c0 0.016 0 0.035 0 0.054 0 1.594-1.292 2.886-2.886 2.886s-2.886-1.292-2.886-2.886c0-0.019 0-0.038 0.001-0.057l-0 0.003c0.042-1.561 1.318-2.81 2.885-2.81s2.843 1.249 2.885 2.806l0 0.004zM9.771 8.657c0 0.016 0.001 0.035 0.001 0.054 0 1.594-1.292 2.886-2.886 2.886s-2.886-1.292-2.886-2.886c0-0.019 0-0.038 0.001-0.057l-0 0.003c0.030-1.571 1.311-2.832 2.885-2.832s2.855 1.262 2.885 2.829l0 0.003z"></path>
</symbol>
<symbol id="icon-search-white-20" viewBox="0 0 32 32">
<path fill="#fff" style="fill: var(--color1, #fff)" d="M30.978 29.147l-7.616-7.921c1.958-2.328 3.031-5.257 3.031-8.306 0-7.124-5.796-12.92-12.92-12.92s-12.92 5.796-12.92 12.92c0 7.124 5.796 12.92 12.92 12.92 2.674 0 5.223-0.807 7.402-2.338l7.674 7.981c0.321 0.333 0.752 0.517 1.214 0.517 0.438 0 0.853-0.167 1.168-0.47 0.67-0.644 0.691-1.713 0.047-2.383zM13.473 3.37c5.266 0 9.55 4.284 9.55 9.55s-4.284 9.55-9.55 9.55-9.55-4.284-9.55-9.55c0-5.266 4.284-9.55 9.55-9.55z"></path>
</symbol>
<symbol id="icon-Vector-Stroke" viewBox="0 0 32 32">
<path  d="M0 16c0-8.837 7.163-16 16-16s16 7.163 16 16c0 8.837-7.163 16-16 16s-16-7.163-16-16zM16 2.133c-7.658 0-13.867 6.208-13.867 13.867s6.208 13.867 13.867 13.867c7.658 0 13.867-6.208 13.867-13.867s-6.208-13.867-13.867-13.867zM10.667 12.8h-2.133v-2.133h2.133v2.133zM23.467 12.8h-2.133v-2.133h2.133v2.133zM9.813 17.707l0.64 0.853c2.773 3.698 8.32 3.698 11.093 0l0.64-0.853 1.707 1.28-0.64 0.853c-3.627 4.836-10.88 4.836-14.507 0l-0.64-0.853 1.707-1.28z"></path>
</symbol>
<symbol id="icon-Vector-Strokedis" viewBox="0 0 32 32">
<path  d="M0 16c0-8.837 7.163-16 16-16s16 7.163 16 16c0 8.837-7.163 16-16 16s-16-7.163-16-16zM16 2.133c-7.658 0-13.867 6.208-13.867 13.867s6.208 13.867 13.867 13.867c7.658 0 13.867-6.208 13.867-13.867s-6.208-13.867-13.867-13.867zM10.667 12.8h-2.133v-2.133h2.133v2.133zM23.467 12.8h-2.133v-2.133h2.133v2.133zM8.107 21.547l0.64-0.853c3.627-4.836 10.88-4.836 14.507 0l0.64 0.853-1.707 1.28-0.64-0.853c-2.773-3.698-8.32-3.698-11.093 0l-0.64 0.853-1.707-1.28z"></path>
</symbol>
<symbol id="icon-Vector-348-Har" viewBox="0 0 37 32">
<path  d="M9.934 2.462c-4.127 0-7.472 3.345-7.472 7.472 0 1.982 0.787 3.882 2.189 5.284l13.811 13.811 13.811-13.811c1.401-1.401 2.189-3.302 2.189-5.284 0-4.127-3.345-7.472-7.472-7.472-1.982 0-3.882 0.787-5.284 2.189l-2.374 2.374c-0.481 0.481-1.26 0.481-1.741 0l-2.374-2.374c-1.401-1.401-3.302-2.189-5.284-2.189zM0 9.934c0-5.486 4.447-9.934 9.934-9.934 2.634 0 5.161 1.047 7.024 2.909l1.504 1.504 1.504-1.504c1.863-1.863 4.39-2.909 7.024-2.909 5.486 0 9.934 4.447 9.934 9.934 0 2.634-1.047 5.161-2.91 7.024l-14.682 14.682c-0.481 0.481-1.26 0.481-1.741 0l-14.682-14.682c-1.863-1.863-2.909-4.39-2.909-7.024z"></path>
</symbol>
<symbol id="icon-arrow-left-1" viewBox="0 0 32 32">
<path d="M7.536 17.584l13.76 13.759c0.875 0.876 2.294 0.876 3.169 0s0.875-2.294 0-3.169l-12.175-12.175 12.175-12.174c0.875-0.875 0.875-2.294 0-3.169s-2.294-0.875-3.169 0l-13.76 13.759c-0.437 0.438-0.656 1.011-0.656 1.584s0.219 1.147 0.656 1.584z"></path>
</symbol>
<symbol id="icon-down" viewBox="0 0 28 32">
<path  d="M5.534 28.1v-28.1h1.939v28.1l4.163-4.537 1.371 1.495-5.818 6.342c-0.182 0.198-0.428 0.31-0.686 0.31s-0.504-0.111-0.686-0.31l-5.818-6.342 1.371-1.495 4.163 4.537zM22.019 2.114c-1.607 0-2.909 1.42-2.909 3.171v3.171h5.818v-3.171c0-1.751-1.303-3.171-2.909-3.171zM24.928 10.57v4.228h1.939v-9.513c0-2.919-2.171-5.285-4.848-5.285s-4.849 2.366-4.849 5.285v9.513h1.939v-4.228h5.818zM17.17 16.912h5.818c2.142 0 3.879 1.893 3.879 4.228 0 1.263-0.508 2.396-1.313 3.171 0.805 0.775 1.313 1.908 1.313 3.171 0 2.335-1.737 4.228-3.879 4.228h-5.818v-14.798zM22.989 23.253c1.071 0 1.939-0.946 1.939-2.114s-0.868-2.114-1.939-2.114h-3.879v4.228h3.879zM19.11 25.367h3.879c1.071 0 1.939 0.946 1.939 2.114s-0.868 2.114-1.939 2.114h-3.879v-4.228z"></path>
</symbol>
<symbol id="icon-up" viewBox="0 0 28 32">
<path  d="M5.818 0.31c0.379-0.413 0.993-0.413 1.371 0l5.818 6.342-1.371 1.495-4.163-4.537v28.1h-1.939v-28.1l-4.163 4.537-1.371-1.495 5.818-6.342zM22.019 2.114c-1.607 0-2.909 1.42-2.909 3.171v3.171h5.818v-3.171c0-1.751-1.303-3.171-2.909-3.171zM24.928 10.57v4.228h1.939v-9.513c0-2.919-2.171-5.285-4.848-5.285s-4.849 2.366-4.849 5.285v9.513h1.939v-4.228h5.818zM17.17 16.912h5.818c2.142 0 3.879 1.893 3.879 4.228 0 1.263-0.508 2.396-1.313 3.171 0.805 0.775 1.313 1.908 1.313 3.171 0 2.335-1.737 4.228-3.879 4.228h-5.818v-14.798zM22.989 23.253c1.071 0 1.939-0.946 1.939-2.114s-0.868-2.114-1.939-2.114h-3.879v4.228h3.879zM19.11 25.367h3.879c1.071 0 1.939 0.946 1.939 2.114s-0.868 2.114-1.939 2.114h-3.879v-4.228z"></path>
</symbol>
<symbol id="icon-upload" viewBox="0 0 32 32">
<path  d="M15.732 0l8.739 8.067-1.645 1.782-5.847-5.398v20.272h-2.425v-20.114l-5.206 5.206-1.715-1.715 8.1-8.1zM2.425 29.575v-14.553h-2.425v16.978h31.531v-16.978h-2.425v14.553h-26.68z"></path>
</symbol>
<symbol id="icon-refr" viewBox="0 0 29 32">
<path d="M13.571 4l-2.477-2.475 1.524-1.525 5.074 5.071-5.074 5.071-1.524-1.525 2.461-2.46c-6.336 0.24-11.4 5.451-11.4 11.839 0 6.541 5.309 11.848 11.856 11.848s11.856-5.307 11.856-11.848v-1.078h2.156v1.078c0 7.733-6.276 14.004-14.012 14.004s-14.012-6.27-14.012-14.004c0-7.586 6.038-13.764 13.571-13.997z"></path>
</symbol>
</defs>
</svg>


